<svg xmlns="http://www.w3.org/2000/svg" width="3180.091" height="1375.894"><g transform="translate(90.045 90.045) scale(9.00454)"><defs><linearGradient id="a"><stop offset="0" stop-color="#616161"/><stop offset=".5" stop-color="#e6e7e8"/><stop offset="1" stop-color="#616161"/></linearGradient></defs><g fill="url(#a)" transform="matrix(1.00274 0 0 1.00274 116.33 -8.017)"><path d="m47.58 81.591.58 1.548M49.177 65.302l.536 1.533M75.893 36.894l4.384 13.615L50.051 7.995 19.776 50.509l4.331-13.615L6.652 20.053l.103 51.154h22.771l20.525-25.454 20.42 25.454H93.24l.108-51.154zM6.652 81.623h86.594v10.382H6.652z"/></g><path fill="#e7eaed" d="M10.328 104.091v.136c7.78 0 9.555 3.23 9.555 7.234 0 3.958-1.774 7.234-9.555 7.234H6.597v9.691c0 1.228.728 2.32 1.865 2.775l.728.273v.364H0v-.364l.728-.273a2.968 2.968 0 0 0 1.865-2.775v-20.883c0-1.228-.728-2.32-1.865-2.775L0 104.455v-.364h10.328zm0 12.648v.045c2.411 0 5.551-.682 5.551-5.278s-3.139-5.278-5.551-5.278H6.597v10.51h3.731zm33.021 9.509.364.091-.773 5.369H22.238v-.364l.728-.273a2.968 2.968 0 0 0 1.865-2.775v-20.883c0-1.228-.728-2.32-1.865-2.775l-.728-.273V104h9.191v.364l-.728.273a2.968 2.968 0 0 0-1.865 2.775v22.248h10.191c.819 0 1.638-.364 2.184-1.001zm29.745 4.686 1.046.364v.364H63.949v-.364l1.638-.637c.773-.273 1.137-1.137.864-1.911l-2.912-7.598h-9.236l-2.957 7.689c-.273.773.091 1.638.864 1.911l1.41.546v.364h-7.507v-.364l.364-.136a5.41 5.41 0 0 0 3.003-3.003l9.282-24.068H60.9l9.191 23.841a5.41 5.41 0 0 0 3.003 3.003zm-18.017-11.738h7.735l-3.867-9.964zm46.215-15.105.773 5.369-.364.045-2.138-2.411a2.907 2.907 0 0 0-2.184-1.001h-6.097v22.248c0 1.228.728 2.32 1.865 2.775l.728.273v.364h-9.191v-.364l.728-.273a2.968 2.968 0 0 0 1.865-2.775v-22.248H81.18c-.819 0-1.638.364-2.184 1.001l-2.138 2.411-.364-.045.773-5.369h24.023zm11.592.591a2.968 2.968 0 0 0-1.865 2.775v20.883c0 1.228.728 2.32 1.865 2.775l.728.273v.364h-9.191v-.364l.728-.273a2.968 2.968 0 0 0 1.865-2.775v-20.883c0-1.228-.728-2.32-1.865-2.775l-.728-.273v-.364h9.191v.364zm29.108 0a2.968 2.968 0 0 0-1.865 2.775v20.883c0 1.228.728 2.32 1.865 2.775l.728.273v.364h-4.595l-17.562-24.432v21.111c0 1.228.728 2.32 1.865 2.775l.728.273v.364h-7.189v-.364l.728-.273a2.968 2.968 0 0 0 1.865-2.775v-20.883c0-1.228-.728-2.32-1.865-2.775l-.728-.273v-.364h7.234l14.923 20.747v-17.426c0-1.228-.728-2.32-1.865-2.775l-.728-.273v-.364h7.189v.364zm22.147-.591 7.234.045v.364l-.728.273a2.968 2.968 0 0 0-1.865 2.775v16.015c0 5.096-4.14 9.236-9.236 9.236h-2.639c-5.096 0-9.236-4.14-9.236-9.236v-16.015c0-1.228-.728-2.32-1.865-2.775l-.728-.273v-.364h9.191v.364l-.728.273a2.968 2.968 0 0 0-1.865 2.775v16.015c0 3.958 1.774 7.189 5.733 7.189h2.093a7.223 7.223 0 0 0 7.234-7.234v-16.015c0-1.228-.728-2.32-1.865-2.775l-.728-.273v-.364zm39.982.591h-.045a2.968 2.968 0 0 0-1.865 2.775v20.883c0 1.228.728 2.32 1.865 2.775l.728.273v.364h-9.191v-.364l.728-.273a2.968 2.968 0 0 0 1.865-2.775v-21.11l-10.009 11.875-10.009-11.875v21.111c0 1.228.728 2.32 1.865 2.775l.728.273v.364h-7.189v-.364l.728-.273a2.968 2.968 0 0 0 1.865-2.775v-20.883c0-1.228-.728-2.32-1.865-2.775l-.728-.273v-.364h7.189v.045l8.736 10.328 8.736-10.328v-.045h6.597v.364z"/><path fill="#e3e9ed" d="m246.907 127.087.378.094-.803 5.571H225v-.378l.755-.283a3.08 3.08 0 0 0 1.936-2.88V107.54a3.08 3.08 0 0 0-1.936-2.88l-.755-.283V104h9.537v.378l-.755.283a3.08 3.08 0 0 0-1.936 2.88v23.087h10.576c.85 0 1.7-.378 2.266-1.039zm13.881-22.379a3.08 3.08 0 0 0-1.936 2.88v21.671a3.08 3.08 0 0 0 1.936 2.88l.755.283v.378h-9.537v-.378l.755-.283a3.08 3.08 0 0 0 1.936-2.88v-21.671a3.08 3.08 0 0 0-1.936-2.88l-.755-.283v-.378h9.537v.378zm37.11 0h-.047a3.08 3.08 0 0 0-1.936 2.88v21.671a3.08 3.08 0 0 0 1.936 2.88l.755.283v.378h-9.537v-.378l.755-.283a3.08 3.08 0 0 0 1.936-2.88v-21.907l-10.387 12.323-10.387-12.323v21.907a3.08 3.08 0 0 0 1.936 2.88l.755.283v.378h-7.46v-.378l.755-.283a3.08 3.08 0 0 0 1.936-2.88v-21.671a3.08 3.08 0 0 0-1.936-2.88l-.755-.283v-.378h7.46v.047l9.065 10.717 9.065-10.717v-.047h6.846v.378zm20.396-.614c7.649 0 14.872 5.005 14.872 14.353 0 9.301-7.224 14.306-14.872 14.306s-14.919-5.005-14.919-14.306c0-9.348 7.271-14.353 14.919-14.353zm0 26.581c6.563 0 10.859-5.477 10.859-12.228s-4.296-12.228-10.859-12.228-10.906 5.477-10.906 12.228 4.344 12.228 10.906 12.228z"/></g></svg>